<?xml version="1.0" encoding="UTF-8"?><svg id="Layer_2" xmlns="http://www.w3.org/2000/svg" viewBox="0 0 554.01 669.48"><defs><style>.cls-1{stroke-width:0px;}</style></defs><g id="Layer_4"><path class="cls-1" d="M553.87,43.49c0-4.83-.09-9.72-.83-14.46-2.8-17.76-17.64-28.9-38.47-28.91C432.15.07,76.2.27,40.11,0c-12.23-.09-22.05,3.77-29.85,13.36C3.29,21.92-.1,31.47,0,42.45c.18,18.77.28,37.55.3,56.32.18,117.78.33,235.55.51,353.33.09,56.3.16,112.61.39,168.91.14,34.5,11.52,48.3,40.78,48.35,110.85.2,221.71.13,332.56-.11,3.77,0,8.4-1.88,11.16-4.47,54.15-50.7,108.02-101.71,162.17-152.41,4.65-4.36,6.13-8.74,6.13-14.82-.13-151.35-.09-302.71-.13-454.06ZM496.5,484.02c-2.89.15-5.88.45-8.87.45-26.15.04-52.32-.5-78.45.3-9.41.29-19.25,2.45-27.97,6.01-15.93,6.51-24.06,19.39-24.12,36.82-.1,28.96-.03,57.92-.03,87.6H57.87V53.9c2.66-.14,373.31,0,438.63,0v430.12Z"/><path class="cls-1" d="M112.95,136.57c-20.2,36.3-19.42,74.15-3.7,111.67,15.56,37.12,50.91,55.13,94.06,49.42,38.39-5.08,65.33-32.07,71.62-72.97-12.56-3.03-24.49-5.9-36.3-8.75-2.44,7.51-4.01,13.58-6.36,19.34-7.04,17.27-19.85,27-38.64,28.08-19.81,1.14-37.38-4.59-46.62-22.98-14.54-28.94-14.65-59.18-.03-88.16,9.31-18.45,27.08-23.79,46.67-23.24,19.08.53,31.54,10.47,38.24,28.11,1.39,3.65,2.99,7.21,4.7,11.33,12.38-2.99,24-5.8,35.59-8.6-7.68-35.73-31.16-59.02-63.9-64.28-39.24-6.3-77.91,9.7-95.35,41.04Z"/><path class="cls-1" d="M337.24,274.35c8.12,21.07,8.05,20.67,30.64,21.26,8.76.23,12.84-2.43,16.03-10.78,17.66-46.34,36.05-92.41,54.11-138.6,6.22-15.9,12.22-31.88,18.56-48.44h-39.29c-17.96,48.19-35.85,96.22-54.72,146.84-18.16-50.7-35.34-98.69-52.53-146.7h-40.66c1.07,3.06,1.83,5.45,2.73,7.78,21.71,56.21,43.46,112.41,65.13,168.64Z"/><rect class="cls-1" x="92.98" y="344.57" width="361.65" height="37.4"/><rect class="cls-1" x="92.98" y="413.86" width="361.65" height="37.4"/></g></svg>