<?xml version="1.0" encoding="UTF-8"?><svg id="Layer_2" xmlns="http://www.w3.org/2000/svg" viewBox="0 0 375 366.09"><defs><style>.cls-1{stroke-width:0px;}</style></defs><g id="Layer_4"><g id="CT7cbp.tif"><path class="cls-1" d="M375,197.74c-.68,5.8-1.26,11.6-2.04,17.39-3.43,25.51-12.14,49.16-25.8,70.91-15.2,24.19-34.53,44.44-58.74,59.86-12.71,8.1-26.27,14.43-40.5,19.31-8.21,2.81-13.7-1.27-13.73-10.06-.05-16.23.04-32.47-.04-48.7-.05-9.97-1.05-19.78-6.51-28.51-1.59-2.54-3.6-4.82-5.47-7.29,7.35-1.37,14.7-2.34,21.84-4.16,19.13-4.87,36.24-13.33,47.88-30.05,8.55-12.28,12.85-26.35,14.04-41.08.85-10.51.94-21.25-.24-31.71-1.43-12.71-7.35-23.92-15.83-33.59-1.44-1.64-1.95-2.99-1.18-5.16,5.46-15.41,3.4-30.5-2.29-45.35-.36-.94-1.83-1.87-2.9-2.04-6.52-1.01-12.69.85-18.42,3.52-9.37,4.37-18.49,9.27-27.58,14.2-2.33,1.26-4.27,1.64-6.85.99-28.71-7.26-57.47-7.29-86.17-.02-2.92.74-5.08.26-7.47-1.33-11.46-7.6-23.79-13.38-37.14-16.77-9.59-2.43-11.12-1.36-13.8,8.04-3.77,13.23-4.33,26.39.32,39.57.34.98-.01,2.68-.71,3.47-15.86,17.97-19.41,39.25-17.2,62.24,1.28,13.25,4.42,25.92,10.34,37.86,8.42,16.98,22.71,27.31,39.99,33.38,10.83,3.81,22.31,5.8,32.85,8.44-2.27,4.12-5.1,9.01-7.67,14.03-.92,1.81-1.58,3.92-1.7,5.93-.23,3.59-2,5.36-5.33,6.29-11.97,3.33-23.86,5.5-35.37-1.5-5.98-3.64-10.43-8.75-13.94-14.73-5.4-9.19-12.96-15.94-23.2-19.01-3.69-1.11-7.89-.92-11.82-.71-2.86.15-3.82,2.2-1.86,4.61,1.67,2.06,3.39,4.36,5.62,5.65,9.82,5.72,15.34,14.78,19.81,24.67,2.67,5.89,5.03,11.86,10.04,16.36,7.87,7.09,17.37,9.78,27.55,10.24,8.84.4,17.7.08,27.06.08,0,1.85-.02,4.62,0,7.4.08,8.18.25,16.36.27,24.53.02,8.95-5.88,13.06-14.41,10.14-22.4-7.68-42.83-18.91-60.73-34.43-20.25-17.55-36.33-38.39-48.01-62.57C4.22,239.69-1.21,209.61.22,178.26c1.64-36,12.88-68.82,33.69-98.27C59.32,44.02,93.34,19.93,135.51,7.38c13.38-3.98,27.1-6.12,41.05-6.8,1.69-.08,3.36-.38,5.05-.59,3.91,0,7.81,0,11.72,0,1.44.19,2.87.5,4.31.56,17.79.76,35.13,3.99,51.86,10.01,38.45,13.83,69.56,37.4,92.74,71.14,15.32,22.3,25.58,46.73,29.91,73.52,1.1,6.82,1.91,13.69,2.85,20.54v21.97Z"/></g></g></svg>